<?xml version="1.0" standalone="no"?><!DOCTYPE svg PUBLIC "-//W3C//DTD SVG 1.1//EN" "http://www.w3.org/Graphics/SVG/1.1/DTD/svg11.dtd"><svg t="1546486333381" class="icon" style="" viewBox="0 0 1024 1024" version="1.1" xmlns="http://www.w3.org/2000/svg" p-id="3608" xmlns:xlink="http://www.w3.org/1999/xlink" width="16" height="16"><defs><style type="text/css"></style></defs><path d="M907.636 643.398a54.854 54.854 0 0 1-54.784 54.784H171.148a54.854 54.854 0 0 1-54.784-54.784V217.716a54.877 54.877 0 0 1 54.784-54.807h681.704a54.877 54.877 0 0 1 54.784 54.807v425.682zM852.852 93.09H171.148A124.765 124.765 0 0 0 46.545 217.716v425.682A124.742 124.742 0 0 0 171.148 768H477.09v93.09H302.545a34.91 34.91 0 0 0 0 69.82h418.91a34.91 34.91 0 1 0 0-69.82H546.909V768h305.943a124.742 124.742 0 0 0 124.603-124.602V217.716A124.765 124.765 0 0 0 852.852 93.091z" p-id="3609" fill="#333333"></path></svg>
